Coordinates
version=1
nRows=14
nColumns=29
inDegrees=yes

Units are S.I. units (second, meters, Newtons, ...)
If the header above contains a line with 'inDegrees', this indicates whether rotational values are in degrees (yes) or radians (no).

endheader
time	bJoint_3	seatpos	slocangle	soarinout	sblpos	plocangle	poarinout	pblpos	hipangle	kneeangle	footangle	lbackangle	uarmleft_up	uarmleft_out	uarmleft_trn	se_inout	se_updown	handleleft_out	handleleft_trn	handleleft_up	uarmright_up	uarmright_out	uarmright_trn	pe_inout	pe_updown	handleright_out	handleright_trn	handleright_up
      3.48500000	      0.00281940	     -0.01202858	    -13.33698053	     20.50088017	    -20.50088017	    -14.01482494	     19.67522747	    -19.67522747	     87.35486518	     16.43942896	     13.79429414	    -28.90196439	     34.96819370	     14.54261234	     10.70463638	    -16.71111276	    -21.42950953	     21.73561813	     25.24851944	     -7.47739281	     38.64773433	     14.23581586	     11.16590154	    -17.77479993	    -21.18173671	    -22.25508980	    -27.93534067	     -4.51345843
      3.49000000	      0.00265219	     -0.01253566	    -12.97411499	     20.50343223	    -20.50343223	    -13.62037764	     19.68991539	    -19.68991539	     87.12484322	     16.87106809	     13.99591131	    -28.50555222	     34.47759778	     14.91642754	     10.60448228	    -16.18827081	    -20.85996011	     21.93875325	     25.17634425	     -7.15293938	     38.10721499	     14.86349054	     10.90511983	    -16.74903314	    -20.45594090	    -22.17352013	    -27.86613394	     -4.02785998
      3.49500000	      0.00263441	     -0.01393813	    -12.60360322	     20.50449557	    -20.50449557	    -13.25795808	     19.70538468	    -19.70538468	     86.51747005	     18.01146555	     14.52893560	    -28.18910137	     33.99055223	     15.27826314	     10.50386468	    -15.69581298	    -20.21291436	     22.16551660	     25.07016370	     -6.82243320	     37.63269894	     15.20622214	     10.79950450	    -16.29647023	    -19.87927195	    -22.41633857	    -27.75342803	     -3.75716942
      3.50000000	      0.00249930	     -0.01452519	    -12.22245197	     20.52150054	    -20.52150054	    -12.88538739	     19.70435884	    -19.70435884	     86.27437406	     18.46816380	     14.74253786	    -27.76813116	     33.52868191	     15.65225546	     10.39398377	    -15.16210995	    -19.77746451	     22.37476509	     25.02002049	     -6.58441434	     37.15637543	     15.60024454	     10.69866192	    -15.75008832	    -19.35498664	    -22.63190380	    -27.69285360	     -3.45175049
      3.50500000	      0.00241490	     -0.01500626	    -11.83310361	     20.53223845	    -20.53223845	    -12.51651526	     19.70442470	    -19.70442470	     86.07964218	     18.83411174	     14.91375392	    -27.34472727	     32.97448094	     16.07538175	     10.25551504	    -14.53268180	    -19.14828287	     22.53137173	     24.94212402	     -6.22238919	     36.64959451	     15.98258945	     10.59817780	    -15.21999617	    -18.79363558	    -22.84707198	    -27.61962012	     -3.12907720
      3.51000000	      0.00229412	     -0.01576988	    -11.47195633	     20.54838547	    -20.54838547	    -12.16137710	     19.71900791	    -19.71900791	     85.77808990	     19.40099053	     15.17908043	    -26.98425033	     32.45552008	     16.44828800	     10.12659719	    -13.97994544	    -18.55004957	     22.68566123	     24.85076353	     -5.90019768	     36.12745076	     16.36515972	     10.46766397	    -14.66316339	    -18.18148911	    -23.00328272	    -27.51541110	     -2.79654273
      3.51500000	      0.00223058	     -0.01670031	    -11.10515132	     20.54507686	    -20.54507686	    -11.80107346	     19.71607045	    -19.71607045	     85.42219777	     20.07031707	     15.49251484	    -26.62678363	     31.92926412	     16.82830017	     10.01583438	    -13.43223482	    -17.88294544	     22.86606997	     24.75835600	     -5.53099632	     35.59793787	     16.75719279	     10.35212766	    -14.10428213	    -17.50388131	    -23.18046339	    -27.41068574	     -2.41926439
      3.52000000	      0.00210673	     -0.01758901	    -10.69744267	     20.56984867	    -20.56984867	    -11.40016272	     19.74119208	    -19.74119208	     85.09306864	     20.68959527	     15.78266392	    -26.21090092	     31.42051331	     17.25019575	      9.86656787	    -12.78527464	    -17.39126912	     23.01961853	     24.69811743	     -5.26442419	     35.09588652	     17.18817025	     10.19894196	    -13.45394327	    -17.01937295	    -23.33190965	    -27.34153157	     -2.15243501
      3.52500000	      0.00204647	     -0.01848258	    -10.32180529	     20.56296470	    -20.56296470	    -11.03260822	     19.73705064	    -19.73705064	     84.77181471	     21.29431842	     16.06613313	    -25.83532514	     30.81205769	     17.57792837	      9.78028014	    -12.35029065	    -16.61802911	     23.27688481	     24.56966394	     -4.86008068	     34.56611678	     17.58600502	     10.08227998	    -12.87888286	    -16.36983580	    -23.50594077	    -27.24890710	     -1.78496037
      3.53000000	      0.00195541	     -0.01941555	     -9.92974385	     20.59228426	    -20.59228426	    -10.66193081	     19.72682566	    -19.72682566	     84.44589555	     21.90808785	     16.35398339	    -25.45636849	     30.25986041	     18.00451087	      9.60878692	    -11.67045043	    -16.02751643	     23.37248042	     24.48651405	     -4.53989119	     33.95523108	     17.92598901	      9.99303871	    -12.43620995	    -15.58608260	    -23.77019706	    -27.11718356	     -1.37546385
      3.53500000	      0.00187293	     -0.02023209	     -9.52863542	     20.57746709	    -20.57746709	    -10.26670625	     19.75556205	    -19.75556205	     84.16798613	     22.43165517	     16.59964130	    -25.04935909	     29.55255826	     18.40725784	      9.48968135	    -11.09928185	    -15.07733324	     23.58049894	     24.34769295	     -4.01482498	     33.41194710	     18.36633369	      9.82480927	    -11.74199657	    -15.04761430	    -23.87061827	    -27.03192971	     -1.07223298
      3.54000000	      0.00177566	     -0.02106406	     -9.12809904	     20.59166355	    -20.59166355	     -9.87927601	     19.76479467	    -19.76479467	     83.89135368	     22.95300764	     16.84436132	    -24.63775479	     29.00856105	     18.84390607	      9.34063449	    -10.40481727	    -14.51269468	     23.69069215	     24.28158807	     -3.69010708	     32.88339540	     18.76132563	      9.69823972	    -11.15261962	    -14.50627633	    -24.04340696	    -26.95505366	     -0.77189496
      3.54500000	      0.00168140	     -0.02294869	     -8.75046890	     20.60605583	    -20.60605583	     -9.49182009	     19.75879053	    -19.75879053	     83.28690916	     24.09282911	     17.37973828	    -24.33811236	     28.41820133	     18.98178016	      9.29473476	    -10.33134674	    -13.82315944	     24.13575773	     24.10982785	     -3.44702607	     32.27023935	     19.15957661	      9.56517632	    -10.58511156	    -13.62960474	    -24.23655845	    -26.80445967	     -0.31915683
      3.55000000	      0.00161789	     -0.02381113	     -8.35496294	     20.60776897	    -20.60776897	     -9.09612708	     19.76489641	    -19.76489641	     83.01969622	     24.59701070	     17.61670693	    -23.91221474	     28.05202692	     19.42477759	      9.17470260	     -9.60384189	    -13.57789261	     24.23273103	     24.12356990	     -3.26893091	     31.76091079	     19.56427705	      9.44197031	     -9.96794608	    -13.14300376	    -24.40141007	    -26.74307385	     -0.03978149
